<?xml version="1.0" encoding="UTF-8" standalone="no"?>
<!DOCTYPE svg PUBLIC "-//W3C//DTD SVG 1.1//EN"
 "http://www.w3.org/Graphics/SVG/1.1/DTD/svg11.dtd">
<!-- Generated by graphviz version 14.0.0 (20250921.2048)
 -->
<!-- Title: BPlusTree Pages: 1 -->
<svg width="451pt" height="188pt"
 viewBox="0.00 0.00 451.00 188.00" xmlns="http://www.w3.org/2000/svg" xmlns:xlink="http://www.w3.org/1999/xlink">
<g id="graph0" class="graph" transform="scale(1 1) rotate(0) translate(4 184)">
<title>BPlusTree</title>
<polygon fill="white" stroke="none" points="-4,4 -4,-184 447.38,-184 447.38,4 -4,4"/>
<!-- node4347565184 -->
<g id="node1" class="node">
<title>node4347565184</title>
<polygon fill="none" stroke="black" points="249.88,-180 188.88,-180 188.88,-144 249.88,-144 249.88,-180"/>
<text xml:space="preserve" text-anchor="middle" x="219.38" y="-156.57" font-family="Arial" font-size="14.00">Granos</text>
</g>
<!-- node4347558752 -->
<g id="node2" class="node">
<title>node4347558752</title>
<polygon fill="none" stroke="black" points="208.5,-108 154.25,-108 154.25,-72 208.5,-72 208.5,-108"/>
<text xml:space="preserve" text-anchor="middle" x="181.38" y="-84.58" font-family="Arial" font-size="14.00">Frutas</text>
</g>
<!-- node4347565184&#45;&gt;node4347558752 -->
<g id="edge1" class="edge">
<title>node4347565184&#45;&gt;node4347558752</title>
<path fill="none" stroke="black" d="M209.98,-143.7C205.79,-135.98 200.76,-126.71 196.09,-118.11"/>
<polygon fill="black" stroke="black" points="199.23,-116.55 191.38,-109.43 193.08,-119.89 199.23,-116.55"/>
</g>
<!-- node4347565280 -->
<g id="node5" class="node">
<title>node4347565280</title>
<polygon fill="none" stroke="black" points="290,-108 226.75,-108 226.75,-72 290,-72 290,-108"/>
<text xml:space="preserve" text-anchor="middle" x="258.38" y="-84.58" font-family="Arial" font-size="14.00">Lacteos</text>
</g>
<!-- node4347565184&#45;&gt;node4347565280 -->
<g id="edge2" class="edge">
<title>node4347565184&#45;&gt;node4347565280</title>
<path fill="none" stroke="black" d="M229.02,-143.7C233.31,-135.98 238.48,-126.71 243.27,-118.11"/>
<polygon fill="black" stroke="black" points="246.3,-119.87 248.11,-109.43 240.18,-116.46 246.3,-119.87"/>
</g>
<!-- node4347558656 -->
<g id="node3" class="node">
<title>node4347558656</title>
<polygon fill="none" stroke="black" points="136.75,-36 0,-36 0,0 136.75,0 136.75,-36"/>
<text xml:space="preserve" text-anchor="middle" x="68.38" y="-12.57" font-family="Arial" font-size="14.00">Bebidas | Despensa</text>
</g>
<!-- node4347558752&#45;&gt;node4347558656 -->
<g id="edge3" class="edge">
<title>node4347558752&#45;&gt;node4347558656</title>
<path fill="none" stroke="black" d="M154.02,-72.05C139.52,-63.07 121.5,-51.91 105.74,-42.14"/>
<polygon fill="black" stroke="black" points="107.89,-39.36 97.55,-37.07 104.21,-45.31 107.89,-39.36"/>
</g>
<!-- node4347564128 -->
<g id="node4" class="node">
<title>node4347564128</title>
<polygon fill="none" stroke="black" points="209.5,-36 155.25,-36 155.25,0 209.5,0 209.5,-36"/>
<text xml:space="preserve" text-anchor="middle" x="182.38" y="-12.57" font-family="Arial" font-size="14.00">Frutas</text>
</g>
<!-- node4347558752&#45;&gt;node4347564128 -->
<g id="edge4" class="edge">
<title>node4347558752&#45;&gt;node4347564128</title>
<path fill="none" stroke="black" d="M181.62,-71.7C181.73,-64.41 181.85,-55.73 181.97,-47.54"/>
<polygon fill="black" stroke="black" points="185.47,-47.67 182.11,-37.62 178.47,-47.57 185.47,-47.67"/>
</g>
<!-- node4347558656&#45;&gt;node4347564128 -->
<g id="edge5" class="edge">
<title>node4347558656&#45;&gt;node4347564128</title>
<path fill="none" stroke="blue" stroke-dasharray="5,2" d="M136.95,-18C139.22,-18 141.48,-18 143.74,-18"/>
<polygon fill="blue" stroke="blue" points="143.54,-21.5 153.54,-18 143.54,-14.5 143.54,-21.5"/>
</g>
<!-- node4347563328 -->
<g id="node6" class="node">
<title>node4347563328</title>
<polygon fill="none" stroke="black" points="288.88,-36 227.88,-36 227.88,0 288.88,0 288.88,-36"/>
<text xml:space="preserve" text-anchor="middle" x="258.38" y="-12.57" font-family="Arial" font-size="14.00">Granos</text>
</g>
<!-- node4347564128&#45;&gt;node4347563328 -->
<g id="edge6" class="edge">
<title>node4347564128&#45;&gt;node4347563328</title>
<path fill="none" stroke="blue" stroke-dasharray="5,2" d="M209.98,-18C212.11,-18 214.24,-18 216.37,-18"/>
<polygon fill="blue" stroke="blue" points="216.24,-21.5 226.24,-18 216.24,-14.5 216.24,-21.5"/>
</g>
<!-- node4347565280&#45;&gt;node4347563328 -->
<g id="edge7" class="edge">
<title>node4347565280&#45;&gt;node4347563328</title>
<path fill="none" stroke="black" d="M258.38,-71.7C258.38,-64.41 258.38,-55.73 258.38,-47.54"/>
<polygon fill="black" stroke="black" points="261.88,-47.62 258.38,-37.62 254.88,-47.62 261.88,-47.62"/>
</g>
<!-- node4347565664 -->
<g id="node7" class="node">
<title>node4347565664</title>
<polygon fill="none" stroke="black" points="443.38,-36 307.38,-36 307.38,0 443.38,0 443.38,-36"/>
<text xml:space="preserve" text-anchor="middle" x="375.38" y="-12.57" font-family="Arial" font-size="14.00">Lacteos | Panaderia</text>
</g>
<!-- node4347565280&#45;&gt;node4347565664 -->
<g id="edge8" class="edge">
<title>node4347565280&#45;&gt;node4347565664</title>
<path fill="none" stroke="black" d="M287.6,-71.52C302.51,-62.6 320.84,-51.63 336.88,-42.03"/>
<polygon fill="black" stroke="black" points="338.44,-45.18 345.23,-37.04 334.85,-39.17 338.44,-45.18"/>
</g>
<!-- node4347563328&#45;&gt;node4347565664 -->
<g id="edge9" class="edge">
<title>node4347563328&#45;&gt;node4347565664</title>
<path fill="none" stroke="blue" stroke-dasharray="5,2" d="M289,-18C291.14,-18 293.28,-18 295.42,-18"/>
<polygon fill="blue" stroke="blue" points="295.37,-21.5 305.37,-18 295.37,-14.5 295.37,-21.5"/>
</g>
</g>
</svg>
